<svg width="16" height="16" viewBox="0 0 16 16" fill="none" xmlns="http://www.w3.org/2000/svg">
<path d="M8.66732 4.66665H7.33398V7.33331H4.66732V8.66665H7.33398V11.3333H8.66732V8.66665H11.334V7.33331H8.66732V4.66665ZM8.00065 1.33331C4.32065 1.33331 1.33398 4.31998 1.33398 7.99998C1.33398 11.68 4.32065 14.6666 8.00065 14.6666C11.6807 14.6666 14.6673 11.68 14.6673 7.99998C14.6673 4.31998 11.6807 1.33331 8.00065 1.33331ZM8.00065 13.3333C5.06065 13.3333 2.66732 10.94 2.66732 7.99998C2.66732 5.05998 5.06065 2.66665 8.00065 2.66665C10.9407 2.66665 13.334 5.05998 13.334 7.99998C13.334 10.94 10.9407 13.3333 8.00065 13.3333Z" fill="#3C3C3C"/>
</svg>
