<svg width="102" height="48" viewBox="0 0 102 48" fill="none" xmlns="http://www.w3.org/2000/svg">
<path d="M47 22C47 16.4772 42.5228 12 37 12H28V13C33.5228 13 38 16.4772 38 22V36H47V22Z" fill="#3C3C3C"/>
<path d="M10 12V36H1V12H10ZM20 12C25.5228 12 30 16.4772 30 22V26C30 31.5228 25.5228 36 20 36H11V35C16.5228 35 21 31.5228 21 26V22C21 16.4772 16.5228 13 11 13V12H20Z" fill="#007DFA"/>
<path d="M97.2197 28.2238H99.4561V29.035C99.9453 28.5175 100.672 28.2098 101.343 28.2098C101.581 28.2098 101.79 28.2378 102 28.3077V30.028C101.734 29.9581 101.497 29.9301 101.259 29.9301C100.546 29.9301 99.8894 30.1539 99.4561 30.6574V35.7763H97.2197V28.2238Z" fill="#3C3C3C"/>
<path d="M95.5925 33.5105V35.3706C94.8796 35.8042 93.8732 36 92.9927 36C90.0154 36 88.45 34.5175 88.45 31.958C88.45 29.4266 89.9176 28.028 92.2798 28.028C94.628 28.028 96.0957 29.4266 96.0957 31.958C96.0957 32.0979 96.0817 32.2937 96.0677 32.5594H90.6305C90.8401 33.7622 91.6229 34.3636 92.9927 34.3636C93.9571 34.3636 94.8237 34.0839 95.5925 33.5105ZM90.7003 30.993H93.9851C93.7474 30.0559 93.1185 29.6224 92.2798 29.6224C91.4971 29.6224 90.924 30.0979 90.7003 30.993Z" fill="#3C3C3C"/>
<path d="M83.1074 28.2238H84.1977V26.0699H86.2943V28.2238H87.748V29.9301H86.2943V33.1748C86.2943 33.9441 86.4201 34.1539 87.077 34.1539C87.3566 34.1539 87.5383 34.1399 87.6921 34.0979V35.8182C87.3007 35.8602 86.9373 35.8881 86.6018 35.8881C85.9588 35.8881 85.4836 35.8182 85.1621 35.6923C84.5331 35.4266 84.1977 34.8252 84.1977 33.6364V29.9301H83.1074V28.2238Z" fill="#3C3C3C"/>
<path d="M79.9552 35.9442C78.823 36.0002 77.565 35.7624 76.7124 35.2729V33.2589C77.4812 33.8183 78.6832 34.2379 79.5079 34.182C80.081 34.14 80.3186 33.8883 80.3605 33.6645C80.4584 33.0911 80.1229 32.8533 79.1026 32.5736C78.5295 32.4197 78.0822 32.2239 77.7467 32.0141C77.0758 31.5946 76.7264 31.119 76.7264 30.2939C76.7264 29.0491 77.7747 28.0421 79.6896 28.0421C80.5283 28.0421 81.4648 28.2099 82.0378 28.4757V30.2799C81.4368 29.9862 80.5283 29.7065 79.9272 29.7065C79.2983 29.7065 78.9488 29.8743 78.8929 30.2099C78.837 30.6016 79.2843 30.8953 80.067 31.133C80.6261 31.3148 81.0874 31.4967 81.4508 31.6785C82.1636 32.0561 82.597 32.6155 82.597 33.5526C82.597 34.9372 81.5067 35.8743 79.9552 35.9442Z" fill="#3C3C3C"/>
<path d="M71.4829 35.9582C69.4003 35.9582 67.9885 34.4197 67.9885 32.0141C67.9885 29.6645 69.3583 28.0421 71.427 28.0421C72.056 28.0421 72.8946 28.2939 73.4537 28.6995V28.2239H75.5224V34.0141C75.5224 34.7694 75.5224 35.0391 75.5224 35.7764H73.5376C73.5376 35.6328 73.5376 35.5 73.5376 35.2729C72.9645 35.7344 72.2796 35.9582 71.4829 35.9582ZM70.1271 32.0141C70.1271 33.3009 70.9797 34.3498 71.9721 34.3498C72.4194 34.3498 73.0484 34.2239 73.4537 33.5666V30.4337C73.0484 29.7764 72.4334 29.6645 71.9721 29.6645C70.9797 29.6645 70.1271 30.6995 70.1271 32.0141Z" fill="#3C3C3C"/>
<path d="M60.0116 35.7762L58.2224 28V27.7203V35.7762H56V25.986H60.0116L61.3394 32.993L61.3674 33.1329L61.3953 32.993L62.7232 25.986H66.7348V35.7762H64.5123V27.7203V28L62.7232 35.7762H60.0116Z" fill="#3C3C3C"/>
<path d="M82.6758 21.9721C80.5931 21.9721 79.1814 20.4337 79.1814 18.0281C79.1814 15.6784 80.5512 14.056 82.6199 14.056C83.2489 14.056 84.0875 14.3078 84.6466 14.7134V14.2378H86.7153V20.0281C86.7153 20.7833 86.7153 21.7903 86.7153 21.7903H84.7305C84.7305 21.7903 84.7305 21.5 84.7305 21.2868C84.1574 21.7483 83.4725 21.9721 82.6758 21.9721ZM81.32 18.0281C81.32 19.3148 82.1726 20.3637 83.165 20.3637C83.6123 20.3637 84.2413 20.2378 84.6466 19.5805V16.4476C84.2413 15.7903 83.6263 15.6784 83.165 15.6784C82.1726 15.6784 81.32 16.7134 81.32 18.0281Z" fill="#3C3C3C"/>
<path d="M73.8391 14.2378H74.9294V12.084H77.026V14.2378H78.4797V15.9441H77.026V19.1889C77.026 19.9581 77.1518 20.1679 77.8087 20.1679C78.0883 20.1679 78.27 20.1539 78.4237 20.112V21.8322C78.0324 21.8742 77.669 21.9022 77.3335 21.9022C76.6905 21.9022 76.2153 21.8322 75.8938 21.7064C75.2648 21.4406 74.9294 20.8392 74.9294 19.6504V15.9441H73.8391V14.2378Z" fill="#3C3C3C"/>
<path d="M68.9031 21.9721C66.8204 21.9721 65.4087 20.4337 65.4087 18.0281C65.4087 15.6784 66.7785 14.056 68.8472 14.056C69.4762 14.056 70.3148 14.3078 70.8739 14.7134V14.2378H72.9426V20.0281C72.9426 20.7833 72.9426 21.7903 72.9426 21.7903H70.9578C70.9578 21.7903 70.9578 21.5 70.9578 21.2868C70.3847 21.7483 69.6998 21.9721 68.9031 21.9721ZM67.5473 18.0281C67.5473 19.3148 68.3999 20.3637 69.3923 20.3637C69.8396 20.3637 70.4686 20.2378 70.8739 19.5805V16.4476C70.4686 15.7903 69.8536 15.6784 69.3923 15.6784C68.3999 15.6784 67.5473 16.7134 67.5473 18.0281Z" fill="#3C3C3C"/>
<path d="M56 21.7902V12H59.718C62.7931 12 64.4285 13.8322 64.4285 16.9091C64.4285 20.0979 62.8071 21.7902 59.6621 21.7902H56ZM58.3063 20.0559H59.746C60.1374 20.0559 60.5147 19.9301 60.8642 19.6783C61.577 19.1748 62.0523 18.1958 62.0523 16.9231C62.0523 15.1329 61.0179 13.7343 59.746 13.7343H58.3063V20.0559Z" fill="#3C3C3C"/>
</svg>
