<svg width="16" height="16" viewBox="0 0 16 16" fill="none" xmlns="http://www.w3.org/2000/svg">
<path d="M7.16169 13.9999C6.52867 14.001 5.90154 13.8787 5.31561 13.64C4.72993 13.4032 4.19775 13.052 3.75045 12.6071C3.30017 12.1694 2.94302 11.6459 2.70033 11.0676C2.33489 10.1968 2.23962 9.23681 2.42679 8.31151C2.61396 7.38621 3.07499 6.53797 3.75045 5.87613L6.69348 2.99048C7.094 2.59689 7.58501 2.30681 8.12376 2.1455C8.66251 1.98418 9.23267 1.95652 9.7846 2.06493C10.3365 2.17334 10.8535 2.41452 11.2905 2.76749C11.7275 3.12045 12.0713 3.5745 12.2919 4.09009C12.4676 4.50215 12.5582 4.94526 12.5582 5.39297C12.5582 5.84067 12.4676 6.28378 12.2919 6.69584C12.1168 7.10767 11.8623 7.48126 11.5428 7.79545L8.60644 10.6678C8.41544 10.8577 8.18795 11.0073 7.93757 11.1076C7.43285 11.3076 6.87046 11.3076 6.36573 11.1076C6.04584 10.9885 5.76175 10.7899 5.54038 10.5308C5.31901 10.2717 5.16767 9.96064 5.10069 9.62697C5.03372 9.29331 5.05332 8.94814 5.15764 8.62414C5.26197 8.30013 5.44757 8.00802 5.69686 7.77546L8.64658 4.91647C8.77341 4.79274 8.94439 4.72429 9.12188 4.72616C9.29937 4.72804 9.46885 4.80009 9.59303 4.92646C9.7172 5.05284 9.78591 5.22319 9.78403 5.40003C9.78215 5.57688 9.70983 5.74574 9.58299 5.86946L6.64666 8.75511C6.58192 8.82065 6.52978 8.89744 6.49282 8.9817C6.45768 9.06388 6.43948 9.15227 6.43931 9.2416C6.44031 9.33301 6.45846 9.42342 6.49282 9.50818C6.52978 9.59243 6.58192 9.66922 6.64666 9.73476C6.71489 9.79935 6.79418 9.85126 6.88076 9.88804C6.96873 9.92452 7.06306 9.9433 7.15834 9.9433C7.25362 9.9433 7.34796 9.92452 7.43592 9.88804C7.52725 9.85269 7.61117 9.80072 7.6834 9.73476L10.6197 6.84912C10.813 6.65822 10.9674 6.43193 11.0746 6.18269C11.1804 5.93508 11.2349 5.66874 11.2349 5.39963C11.2349 5.13052 11.1804 4.86418 11.0746 4.61657C10.9674 4.36733 10.813 4.14104 10.6197 3.95014C10.2137 3.57876 9.68266 3.3727 9.13151 3.3727C8.58036 3.3727 8.04927 3.57876 7.64327 3.95014L4.68687 6.82912C4.36731 7.14582 4.11285 7.5216 3.93773 7.9354C3.76018 8.34932 3.66864 8.79479 3.66864 9.24494C3.66864 9.69508 3.76018 10.1405 3.93773 10.5545C4.11285 10.9683 4.36731 11.344 4.68687 11.6607C5.01328 11.9812 5.39959 12.2348 5.82395 12.4071C6.46177 12.6689 7.16286 12.7378 7.8397 12.605C8.51654 12.4723 9.13915 12.1439 9.62981 11.6607L12.5662 8.76844C12.6949 8.6601 12.8599 8.60416 13.0282 8.6118C13.1965 8.61944 13.3558 8.6901 13.4741 8.80966C13.5924 8.92921 13.661 9.08885 13.6663 9.25665C13.6716 9.42446 13.6131 9.58806 13.5026 9.71477L10.5662 12.6071C10.1248 13.0498 9.59967 13.4009 9.02114 13.64C8.4313 13.8813 7.79929 14.0036 7.16169 13.9999Z" fill="#292C2E"/>
</svg>
