<svg width="16" height="16" viewBox="0 0 16 16" fill="none" xmlns="http://www.w3.org/2000/svg">
<path d="M8.00016 1.33331C4.3135 1.33331 1.3335 4.31331 1.3335 7.99998C1.3335 11.6866 4.3135 14.6666 8.00016 14.6666C11.6868 14.6666 14.6668 11.6866 14.6668 7.99998C14.6668 4.31331 11.6868 1.33331 8.00016 1.33331ZM10.8635 9.92331C11.1231 10.1829 11.1231 10.6037 10.8635 10.8633C10.6039 11.1229 10.1831 11.1229 9.9235 10.8633L8.00016 8.93998L6.07683 10.8633C5.81726 11.1229 5.3964 11.1229 5.13683 10.8633C4.87726 10.6037 4.87726 10.1829 5.13683 9.92331L7.06016 7.99998L5.13683 6.07665C4.87726 5.81707 4.87726 5.39622 5.13683 5.13665C5.3964 4.87707 5.81726 4.87707 6.07683 5.13665L8.00016 7.05998L9.9235 5.13665C10.1831 4.87707 10.6039 4.87707 10.8635 5.13665C11.1231 5.39622 11.1231 5.81707 10.8635 6.07665L8.94016 7.99998L10.8635 9.92331Z" fill="#3C3C3C"/>
<path d="M8.0004 8.93997L9.92373 10.8633C10.1833 11.1229 10.6042 11.1229 10.8637 10.8633C11.1233 10.6037 11.1233 10.1829 10.8637 9.9233L8.9404 7.99997L10.8637 6.07664C11.1233 5.81706 11.1233 5.39621 10.8637 5.13664C10.6042 4.87706 10.1833 4.87706 9.92373 5.13664L8.0004 7.05997L6.07706 5.13664C5.81749 4.87706 5.39664 4.87706 5.13706 5.13664C4.87749 5.39621 4.87749 5.81706 5.13706 6.07664L7.0604 7.99997L5.13706 9.9233C4.87749 10.1829 4.87749 10.6037 5.13706 10.8633C5.39664 11.1229 5.81749 11.1229 6.07706 10.8633L8.0004 8.93997Z" fill="white"/>
</svg>
