<svg width="20" height="20" viewBox="0 0 20 20" fill="none" xmlns="http://www.w3.org/2000/svg">
<path d="M11.6663 1.66666H4.99967C4.08301 1.66666 3.34134 2.41666 3.34134 3.33332L3.33301 16.6667C3.33301 17.5833 4.07467 18.3333 4.99134 18.3333H14.9997C15.9163 18.3333 16.6663 17.5833 16.6663 16.6667V6.66666L11.6663 1.66666ZM14.9997 16.6667H4.99967V3.33332H10.9747L14.9997 7.35832V16.6667Z" fill="#3C3C3C"/>
<path d="M6.87063 12.3968C7.39008 13.5841 8.57738 14.4206 9.96032 14.4206C11.8222 14.4206 13.3333 12.9095 13.3333 11.0476C13.3333 9.1857 11.8222 7.67459 9.96032 7.67459C8.76627 7.67459 7.72738 8.29523 7.12698 9.22618L6.25 8.34919V11.0476H8.94841L7.86905 9.96824C8.26032 9.21269 9.0496 8.6865 9.96032 8.6865C11.2623 8.6865 12.3214 9.74562 12.3214 11.0476C12.3214 12.3496 11.2623 13.4087 9.96032 13.4087C9.15754 13.4087 8.44921 13.004 8.02421 12.3968H6.87063Z" fill="#3C3C3C"/>
</svg>
