<svg width="24" height="24" viewBox="0 0 24 24" fill="none" xmlns="http://www.w3.org/2000/svg">
<path d="M19 19V21H5V19H19ZM21 17V7C21 5.89543 20.1046 5 19 5H5C3.89543 5 3 5.89543 3 7V17C3 18.1046 3.89543 19 5 19V21C2.79086 21 1 19.2091 1 17V7C1 4.79086 2.79086 3 5 3H19C21.2091 3 23 4.79086 23 7V17C23 19.2091 21.2091 21 19 21V19C20.1046 19 21 18.1046 21 17Z" fill="#3C3C3C"/>
<path d="M10 4V20H8V4H10Z" fill="#3C3C3C"/>
<path d="M6 7C6.55228 7 7 7.44772 7 8C7 8.55228 6.55228 9 6 9H5C4.44772 9 4 8.55228 4 8C4 7.44772 4.44772 7 5 7H6Z" fill="#3C3C3C"/>
<path d="M6 11C6.55228 11 7 11.4477 7 12C7 12.5523 6.55228 13 6 13H5C4.44772 13 4 12.5523 4 12C4 11.4477 4.44772 11 5 11H6Z" fill="#3C3C3C"/>
<path d="M13.7071 7.29297C13.3166 6.90245 12.6836 6.90245 12.293 7.29297C11.9025 7.68349 11.9025 8.31651 12.293 8.70703L15.586 12L12.293 15.293L12.2247 15.3691C11.9043 15.7619 11.9269 16.3409 12.293 16.707C12.6592 17.0731 13.2382 17.0957 13.6309 16.7754L13.7071 16.707L17.7071 12.707C18.0976 12.3165 18.0976 11.6835 17.7071 11.293L13.7071 7.29297Z" fill="#3C3C3C"/>
</svg>
