<svg width="16" height="16" viewBox="0 0 16 16" fill="none" xmlns="http://www.w3.org/2000/svg">
<path d="M7.33301 4.66667V2.66667C7.33301 2.29848 7.63148 2 7.99967 2C8.36786 2 8.66634 2.29848 8.66634 2.66667V4.66667L8.66309 4.73503C8.62886 5.07111 8.34479 5.33333 7.99967 5.33333C7.65456 5.33333 7.37048 5.07111 7.33626 4.73503L7.33301 4.66667Z" fill="#3C3C3C"/>
<path d="M7.33301 13.3334V11.3334C7.33301 10.9652 7.63148 10.6667 7.99967 10.6667C8.36786 10.6667 8.66634 10.9652 8.66634 11.3334V13.3334L8.66309 13.4017C8.62886 13.7378 8.34479 14 7.99967 14C7.65456 14 7.37048 13.7378 7.33626 13.4017L7.33301 13.3334Z" fill="#3C3C3C"/>
<path d="M11.3333 7.33331L13.3333 7.33331C13.7015 7.33331 14 7.63179 14 7.99998C14 8.36817 13.7015 8.66665 13.3333 8.66665L11.3333 8.66665L11.265 8.66339C10.9289 8.62917 10.6667 8.3451 10.6667 7.99998C10.6667 7.65486 10.9289 7.37079 11.265 7.33657L11.3333 7.33331Z" fill="#3C3C3C"/>
<path d="M2.66634 7.33331L4.66634 7.33331C5.03453 7.33331 5.33301 7.63179 5.33301 7.99998C5.33301 8.36817 5.03453 8.66665 4.66634 8.66665L2.66634 8.66665L2.59798 8.66339C2.2619 8.62917 1.99967 8.3451 1.99967 7.99998C1.99967 7.65486 2.2619 7.37079 2.59798 7.33657L2.66634 7.33331Z" fill="#3C3C3C"/>
<path d="M9.88587 5.17157L11.3001 3.75735C11.5604 3.497 11.9825 3.497 12.2429 3.75735C12.5032 4.0177 12.5032 4.43981 12.2429 4.70016L10.8287 6.11438L10.778 6.16041C10.5162 6.37386 10.1299 6.35841 9.88587 6.11438C9.64183 5.87034 9.62638 5.48405 9.83983 5.22221L9.88587 5.17157Z" fill="#3C3C3C"/>
<path d="M3.75794 11.2998L5.17215 9.88559C5.4325 9.62524 5.85461 9.62524 6.11496 9.88559C6.37531 10.1459 6.37531 10.568 6.11496 10.8284L4.70075 12.2426L4.65011 12.2886C4.38826 12.5021 4.00197 12.4866 3.75794 12.2426C3.5139 11.9986 3.49845 11.6123 3.7119 11.3504L3.75794 11.2998Z" fill="#3C3C3C"/>
<path d="M10.8282 9.88562L12.2425 11.2998C12.5028 11.5602 12.5028 11.9823 12.2425 12.2426C11.9821 12.503 11.56 12.503 11.2997 12.2426L9.88544 10.8284L9.8394 10.7778C9.62595 10.5159 9.64141 10.1297 9.88544 9.88562C10.1295 9.64159 10.5158 9.62614 10.7776 9.83959L10.8282 9.88562Z" fill="#3C3C3C"/>
<path d="M4.70032 3.75739L6.11453 5.1716C6.37488 5.43195 6.37488 5.85406 6.11453 6.11441C5.85418 6.37476 5.43207 6.37476 5.17172 6.11441L3.75751 4.7002L3.71148 4.64956C3.49802 4.38771 3.51348 4.00142 3.75751 3.75739C4.00155 3.51335 4.38783 3.4979 4.64968 3.71135L4.70032 3.75739Z" fill="#3C3C3C"/>
</svg>
