<svg width="16" height="16" viewBox="0 0 16 16" fill="none" xmlns="http://www.w3.org/2000/svg">
<path d="M11.3333 12.8134H3.33333V4.66677H8V3.33344H3.33333C2.6 3.33344 2 3.93344 2 4.66677V12.6668C2 13.4001 2.6 14.0001 3.33333 14.0001H11.3333C12.0667 14.0001 12.6667 13.4001 12.6667 12.6668V8.0001H11.3333V12.8134Z" fill="#3C3C3C"/>
<path d="M12.6673 1.33344H11.334V3.33343H9.33398C9.34065 3.3401 9.33398 4.66677 9.33398 4.66677H11.334V6.6601C11.3407 6.66677 12.6673 6.6601 12.6673 6.6601V4.66677H14.6673V3.33343H12.6673V1.33344Z" fill="#3C3C3C"/>
<path d="M9.99935 6.00006H4.66602V7.33339H9.99935V6.00006Z" fill="#3C3C3C"/>
<path d="M4.66602 8.00006V9.33339H9.99935V8.00006H7.99935H4.66602Z" fill="#3C3C3C"/>
<path d="M9.99935 10.0001H4.66602V11.3334H9.99935V10.0001Z" fill="#3C3C3C"/>
</svg>
