<svg width="24" height="24" viewBox="0 0 24 24" fill="none" xmlns="http://www.w3.org/2000/svg">
<path d="M2 5C2 3.9 2.9 3 4 3H20C21.1 3 22 3.9 22 5V17C22 18.1 21.1 19 20 19H6L2.85355 22.1464C2.53857 22.4614 2 22.2383 2 21.7929V5ZM4 18.17L5.17 17H20V5H4V18.17ZM11 8C11 7.44772 11.4477 7 12 7C12.5523 7 13 7.44772 13 8V10H15C15.5523 10 16 10.4477 16 11C16 11.5523 15.5523 12 15 12H13V14C13 14.5523 12.5523 15 12 15C11.4477 15 11 14.5523 11 14V12H9C8.44772 12 8 11.5523 8 11C8 10.4477 8.44772 10 9 10H11V8Z" fill="#3C3C3C"/>
</svg>
