<svg width="16" height="16" viewBox="0 0 16 16" fill="none" xmlns="http://www.w3.org/2000/svg">
<g clip-path="url(#clip0_229_15)">
<path d="M14 2.66669H2.00002C1.26669 2.66669 0.666687 3.26669 0.666687 4.00002V12.6667C0.666687 13.4 1.26669 14 2.00002 14H14C14.7334 14 15.3334 13.4 15.3334 12.6667V4.00002C15.3334 3.26669 14.7334 2.66669 14 2.66669ZM2.00002 12.6667V4.00002H6.00002V12.6667H2.00002ZM14 12.6667H7.33335V4.00002H14V12.6667ZM8.66669 6.33335H12.6667V7.33335H8.66669V6.33335ZM8.66669 8.00002H12.6667V9.00002H8.66669V8.00002ZM8.66669 9.66669H12.6667V10.6667H8.66669V9.66669Z" fill="#007DFA"/>
</g>
<defs>
<clipPath id="clip0_229_15">
<rect width="16" height="16" fill="white"/>
</clipPath>
</defs>
</svg>
