<svg width="16" height="16" viewBox="0 0 16 16" fill="none" xmlns="http://www.w3.org/2000/svg">
<path d="M8.0013 2.66665V1.47139C8.0013 1.17442 7.64225 1.0257 7.43227 1.23569L5.57034 3.09762C5.44016 3.22779 5.44016 3.43885 5.57034 3.56902L7.43227 5.43095C7.64225 5.64094 8.0013 5.49222 8.0013 5.19525V3.99999C10.208 3.99999 12.0013 5.79332 12.0013 7.99999C12.0013 8.67332 11.8346 9.31332 11.5346 9.86665L12.508 10.84C13.028 10.02 13.3346 9.04665 13.3346 7.99999C13.3346 5.05332 10.948 2.66665 8.0013 2.66665ZM8.0013 12C5.79464 12 4.0013 10.2067 4.0013 7.99999C4.0013 7.32665 4.16797 6.68665 4.46797 6.13332L3.49464 5.15999C2.97464 5.97999 2.66797 6.95332 2.66797 7.99999C2.66797 10.9467 5.05464 13.3333 8.0013 13.3333V14.5286C8.0013 14.8256 8.36035 14.9743 8.57034 14.7643L10.4323 12.9024C10.5624 12.7722 10.5624 12.5611 10.4323 12.431L8.57034 10.569C8.36035 10.359 8.0013 10.5078 8.0013 10.8047V12Z" fill="#3C3C3C"/>
</svg>
