<svg width="28" height="24" viewBox="0 0 28 24" fill="none" xmlns="http://www.w3.org/2000/svg">
<path d="M14.0013 6.66665V5.47139C14.0013 5.17442 13.6423 5.0257 13.4323 5.23569L11.5703 7.09762C11.4402 7.22779 11.4402 7.43885 11.5703 7.56902L13.4323 9.43095C13.6423 9.64094 14.0013 9.49222 14.0013 9.19525V7.99999C16.208 7.99999 18.0013 9.79332 18.0013 12C18.0013 12.6733 17.8346 13.3133 17.5346 13.8667L18.508 14.84C19.028 14.02 19.3346 13.0467 19.3346 12C19.3346 9.05332 16.948 6.66665 14.0013 6.66665ZM14.0013 16C11.7946 16 10.0013 14.2067 10.0013 12C10.0013 11.3267 10.168 10.6867 10.468 10.1333L9.49464 9.15999C8.97464 9.97999 8.66797 10.9533 8.66797 12C8.66797 14.9467 11.0546 17.3333 14.0013 17.3333V18.5286C14.0013 18.8256 14.3603 18.9743 14.5703 18.7643L16.4323 16.9024C16.5624 16.7722 16.5624 16.5611 16.4323 16.431L14.5703 14.569C14.3603 14.359 14.0013 14.5078 14.0013 14.8047V16Z" fill="#3C3C3C"/>
</svg>
