<svg width="24" height="24" viewBox="0 0 24 24" fill="none" xmlns="http://www.w3.org/2000/svg">
<path d="M18.9879 3.21191C20.1225 2.73728 21.2616 3.87638 20.7867 5.01074L13.8444 21.585C13.7178 21.8868 13.4226 22.0829 13.0953 22.083C12.7595 22.083 12.4575 21.8768 12.3365 21.5635L9.97327 15.4395L13.6237 11.79L13.692 11.7139C14.0122 11.3212 13.9896 10.7421 13.6237 10.376C13.2574 10.01 12.6775 9.98703 12.2848 10.3076L12.2096 10.376L8.56018 14.0244L2.43616 11.6523C2.1233 11.5311 1.91677 11.23 1.91663 10.8945C1.91663 10.5669 2.11342 10.2711 2.41565 10.1445L18.9879 3.21191Z" fill="white"/>
</svg>
