<svg width="16" height="16" viewBox="0 0 16 16" fill="none" xmlns="http://www.w3.org/2000/svg">
<path d="M5.17088 5.17095C8.29488 2.04695 12.094 0.781166 13.6562 2.34283C15.2183 3.90492 13.9523 7.70399 10.8281 10.8282C7.70391 13.9524 3.90485 15.2184 2.34275 13.6563C0.781089 12.094 2.04687 8.29496 5.17088 5.17095ZM12.7138 3.28619C12.4823 3.05463 11.8061 2.80297 10.4209 3.2647C9.12037 3.69832 7.56152 4.66703 6.11424 6.11431C4.66695 7.56161 3.69823 9.12044 3.26463 10.421C2.80289 11.8061 3.05456 12.4824 3.28611 12.7139C3.51782 12.9454 4.19349 13.1969 5.5781 12.7354C6.87868 12.3019 8.4383 11.3332 9.88572 9.8858C11.3331 8.43837 12.3018 6.87876 12.7353 5.57818C13.1968 4.19353 12.9453 3.5179 12.7138 3.28619Z" fill="#3C3C3C"/>
<path d="M10.8291 5.17083C13.9531 8.29484 15.2189 12.0939 13.6572 13.6562C12.0952 15.2183 8.29609 13.9523 5.1719 10.8281C2.0477 7.70386 0.781674 3.9048 2.34377 2.34271C3.90604 0.781043 7.70512 2.04683 10.8291 5.17083ZM12.7139 12.7138C12.9454 12.4822 13.1971 11.806 12.7354 10.4208C12.3018 9.12032 11.333 7.56147 9.88576 6.11419C8.43847 4.6669 6.87963 3.69819 5.57912 3.26458C4.19393 2.80285 3.51771 3.05451 3.28615 3.28606C3.05467 3.51778 2.8032 4.19345 3.26467 5.57806C3.69822 6.87864 4.66686 8.43825 6.11428 9.88567C7.56171 11.3331 9.12131 12.3017 10.4219 12.7353C11.8065 13.1968 12.4822 12.9453 12.7139 12.7138Z" fill="#3C3C3C"/>
<circle cx="8.00033" cy="8" r="1.33333" fill="#3C3C3C"/>
</svg>
