<svg width="16" height="16" viewBox="0 0 16 16" fill="none" xmlns="http://www.w3.org/2000/svg">
<path d="M5.17088 5.17096C8.29488 2.04695 12.094 0.781174 13.6562 2.34284C15.2183 3.90493 13.9523 7.70399 10.8281 10.8282C7.70391 13.9524 3.90485 15.2184 2.34275 13.6563C0.781089 12.094 2.04687 8.29497 5.17088 5.17096ZM12.7138 3.28619C12.4823 3.05464 11.8061 2.80298 10.4209 3.26471C9.12037 3.69833 7.56152 4.66704 6.11424 6.11432C4.66695 7.56161 3.69823 9.12045 3.26463 10.421C2.80289 11.8062 3.05456 12.4824 3.28611 12.7139C3.51782 12.9454 4.19349 13.1969 5.5781 12.7354C6.87868 12.3019 8.4383 11.3332 9.88572 9.8858C11.3331 8.43838 12.3018 6.87877 12.7353 5.57819C13.1968 4.19354 12.9453 3.51791 12.7138 3.28619Z" fill="#007DFA"/>
<path d="M10.8291 5.17084C13.9531 8.29485 15.2189 12.0939 13.6572 13.6562C12.0952 15.2183 8.29609 13.9523 5.1719 10.8281C2.0477 7.70387 0.781674 3.90481 2.34377 2.34271C3.90604 0.78105 7.70512 2.04683 10.8291 5.17084ZM12.7139 12.7138C12.9454 12.4823 13.1971 11.806 12.7354 10.4208C12.3018 9.12033 11.333 7.56148 9.88576 6.1142C8.43847 4.66691 6.87963 3.69819 5.57912 3.26459C4.19393 2.80286 3.51771 3.05452 3.28615 3.28607C3.05467 3.51778 2.8032 4.19345 3.26467 5.57806C3.69822 6.87864 4.66686 8.43826 6.11428 9.88568C7.56171 11.3331 9.12131 12.3017 10.4219 12.7353C11.8065 13.1968 12.4822 12.9453 12.7139 12.7138Z" fill="#007DFA"/>
<circle cx="8.00033" cy="8" r="1.33333" fill="#007DFA"/>
</svg>
