<svg width="32" height="32" viewBox="0 0 32 32" fill="none" xmlns="http://www.w3.org/2000/svg">
<path d="M4 4C4 2.89543 4.89543 2 6 2H22L28 8V28C28 29.1046 27.1046 30 26 30H6C4.89543 30 4 29.1046 4 28V4Z" fill="#1EC999"/>
<path d="M11.2938 11.004H13.2958L15.6478 14.532L17.9998 11.004H20.0018L16.6278 15.834L20.2258 21H18.2238L15.6478 17.136L13.0718 21H11.0698L14.6398 15.834L11.2938 11.004Z" fill="white"/>
<path d="M22 2L28 8H24C22.8954 8 22 7.10457 22 6V2Z" fill="white" fill-opacity="0.6"/>
</svg>
